/* XPM */
static char * hide_active_xpm[] = {
"19 25 8 1",
" 	c None",
".	c #1F1F1F",
"+	c #404040",
"@	c #2C2C2C",
"#	c #343434",
"$	c #171717",
"%	c #222222",
"&	c #E7E3E7",
"...................",
"+++++++++++++++++++",
"@@@@@@@@@@@@@@@@@@@",
"@@@@@@@@@@@@@@@@@@@",
"@@@@@@@@@@@@@@@@@@@",
"@@##############@@@",
"@@#$$$$$$$$$$$$#@@@",
"@@#$%%%%%%%%%%$#@@@",
"@@#$%%%%%%%%%%$#@@@",
"@@#$%%%%%%%%%%$#@@@",
"@@#$%%&&&&&&%%$#@@@",
"@@#$%%&&&&&&%%$#@@@",
"@@#$%%%%%%%%%%$#@@@",
"@@#$%%%%%%%%%%$#@@@",
"@@#$%%%%%%%%%%$#@@@",
"@@#$$$$$$$$$$$$#@@@",
"@@##############@@@",
"@@@@@@@@@@@@@@@@@@@",
"@@@@@@@@@@@@@@@@@@@",
"@@@@@@@@@@@@@@@@@@@",
"@@@@@@@@@@@@@@@@@@@",
"@@@@@@@@@@@@@@@@@@@",
"@@@@@@@@@@@@@@@@@@@",
"@@@@@@@@@@@@@@@@@@@",
"+++++++++++++++++++"};
