/* XPM */
static char * hide_pressed_xpm[] = {
"19 25 7 1",
" 	c None",
".	c #D3D3D3",
"+	c #BFBFBF",
"@	c #CBCBCB",
"#	c #E8E8E8",
"$	c #DDDDDD",
"%	c #787878",
"...................",
"+++++++++++++++++++",
"...................",
"...................",
"...................",
"..@@@@@@@@@@@@@@...",
"..@############@...",
"..@#$$$$$$$$$$#@...",
"..@#$$$$$$$$$$#@...",
"..@#$$$$$$$$$$#@...",
"..@#$$%%%%%%$$#@...",
"..@#$$%%%%%%$$#@...",
"..@#$$$$$$$$$$#@...",
"..@#$$$$$$$$$$#@...",
"..@#$$$$$$$$$$#@...",
"..@############@...",
"..@@@@@@@@@@@@@@...",
"...................",
"...................",
"...................",
"...................",
"...................",
"...................",
"...................",
"+++++++++++++++++++"};
