/* XPM */
static char * top_left_active_xpm[] = {
"5 25 4 1",
" 	c None",
".	c #E0E0E0",
"+	c #BFBFBF",
"@	c #D3D3D3",
" ....",
"..+++",
".++@@",
".+@@@",
".+@@@",
".+@@@",
".+@@@",
".+@@@",
".+@@@",
".+@@@",
".+@@@",
".+@@@",
".+@@@",
".+@@@",
".+@@@",
".+@@@",
".+@@@",
".+@@@",
".+@@@",
".+@@@",
".+@@@",
".+@@@",
".+@@@",
".+@@@",
".++++"};
