/* XPM */
static char * right_inactive_xpm[] = {
"3 6 3 1",
" 	c #3D3D3D",
".	c #555555",
"+	c #2C2C2C",
" .+",
" .+",
" .+",
" .+",
" .+",
" .+"};
