/* XPM */
static char * top_right_inactive_xpm[] = {
"5 25 4 1",
" 	c None",
".	c #2C2C2C",
"+	c #555555",
"@	c #3D3D3D",
".... ",
"+++..",
"@@++.",
"@@@+.",
"@@@+.",
"@@@+.",
"@@@+.",
"@@@+.",
"@@@+.",
"@@@+.",
"@@@+.",
"@@@+.",
"@@@+.",
"@@@+.",
"@@@+.",
"@@@+.",
"@@@+.",
"@@@+.",
"@@@+.",
"@@@+.",
"@@@+.",
"@@@+.",
"@@@+.",
"@@@+.",
"++++."};
