/* XPM */
static char * maximize_inactive_xpm[] = {
"19 25 3 1",
" 	c #D3D3D3",
".	c #AAAAAA",
"+	c #C2C2C2",
"                   ",
"...................",
"+++++++++++++++++++",
"+++++++++++++++++++",
"+++++++++++++++++++",
"++...............++",
"++.             .++",
"++. +++++++++++ .++",
"++. +++++++++++ .++",
"++. +++++++++++ .++",
"++. +++++++++++ .++",
"++. +++++++++++ .++",
"++. +++++++++++ .++",
"++.             .++",
"++...............++",
"+++++++++++++++++++",
"+++++++++++++++++++",
"+++++++++++++++++++",
"+++++++++++++++++++",
"+++++++++++++++++++",
"+++++++++++++++++++",
"+++++++++++++++++++",
"+++++++++++++++++++",
"+++++++++++++++++++",
"..................."};
