/* XPM */
static char * right_inactive_xpm[] = {
"3 15 3 1",
" 	c #C2C2C2",
".	c #AAAAAA",
"+	c #D3D3D3",
" .+",
" .+",
" .+",
" .+",
" .+",
" .+",
" .+",
" .+",
" .+",
" .+",
" .+",
" .+",
" .+",
" .+",
" .+"};
