/* XPM */
static char * maximize_active_xpm[] = {
"19 25 8 1",
" 	c None",
".	c #E0E0E0",
"+	c #BFBFBF",
"@	c #D3D3D3",
"#	c #CBCBCB",
"$	c #E8E8E8",
"%	c #DDDDDD",
"&	c #2E302E",
"...................",
"+++++++++++++++++++",
"@@@@@@@@@@@@@@@@@@@",
"@@@@@@@@@@@@@@@@@@@",
"@@@@@@@@@@@@@@@@@@@",
"@@##############@@@",
"@@#$$$$$$$$$$$$#@@@",
"@@#$%%%%%%%%%%$#@@@",
"@@#$%%&&&&&&%%$#@@@",
"@@#$%%&%%%%&%%$#@@@",
"@@#$%%&%%%%&%%$#@@@",
"@@#$%%&%%%%&%%$#@@@",
"@@#$%%&%%%%&%%$#@@@",
"@@#$%%&&&&&&%%$#@@@",
"@@#$%%%%%%%%%%$#@@@",
"@@#$$$$$$$$$$$$#@@@",
"@@##############@@@",
"@@@@@@@@@@@@@@@@@@@",
"@@@@@@@@@@@@@@@@@@@",
"@@@@@@@@@@@@@@@@@@@",
"@@@@@@@@@@@@@@@@@@@",
"@@@@@@@@@@@@@@@@@@@",
"@@@@@@@@@@@@@@@@@@@",
"@@@@@@@@@@@@@@@@@@@",
"+++++++++++++++++++"};
