/* XPM */
static char * maximize_pressed_xpm[] = {
"19 25 8 1",
" 	c None",
".	c #D3D3D3",
"+	c #E0E0E0",
"@	c #BFBFBF",
"#	c #CBCBCB",
"$	c #E8E8E8",
"%	c #DDDDDD",
"&	c #787878",
"..++++++++++++++...",
"@@@@@@@@@@@@@@@@@@@",
"...................",
"...................",
"...................",
"..##############...",
"..#$$$$$$$$$$$$#...",
"..#$%%%%%%%%%%$#...",
"..#$%%&&&&&&%%$#...",
"..#$%%&%%%%&%%$#...",
"..#$%%&%%%%&%%$#...",
"..#$%%&%%%%&%%$#...",
"..#$%%&%%%%&%%$#...",
"..#$%%&&&&&&%%$#...",
"..#$%%%%%%%%%%$#...",
"..#$$$$$$$$$$$$#...",
"..##############...",
"...................",
"...................",
"...................",
"...................",
"...................",
"...................",
"...................",
"@@@@@@@@@@@@@@@@@@@"};
