/* XPM */
static char * bottom_active_xpm[] = {
"22 3 3 1",
" 	c #C2C2C2",
".	c #AAAAAA",
"+	c #D3D3D3",
"                      ",
"......................",
"++++++++++++++++++++++"};
